{
  "asset": {
    "version": "2.0",
    "generator": "Incinerator Engine self-authored S6 east-district conformance fixture",
    "copyright": "Copyright 2026 Matt; project-owned conformance fixture"
  },
  "scene": 0,
  "scenes": [
    { "name": "S6EastDistrictScene", "nodes": [0, 1] }
  ],
  "nodes": [
    { "name": "EastBoundaryMarker", "mesh": 0, "translation": [14.0, 0.0, 0.0] },
    { "name": "EastInteriorMarker", "mesh": 0, "translation": [18.0, 0.0, 0.0], "scale": [0.75, 1.0, 0.75] }
  ],
  "meshes": [
    {
      "name": "S6EastTriangle",
      "primitives": [
        {
          "attributes": { "POSITION": 0, "NORMAL": 1, "TEXCOORD_0": 2 },
          "indices": 3,
          "material": 0,
          "mode": 4
        }
      ]
    }
  ],
  "materials": [
    {
      "name": "S6EastMaterial",
      "pbrMetallicRoughness": {
        "baseColorFactor": [0.2, 0.55, 1.0, 1.0],
        "baseColorTexture": { "index": 0 },
        "metallicFactor": 0.0,
        "roughnessFactor": 1.0
      }
    }
  ],
  "textures": [
    { "name": "S6EastTexture", "sampler": 0, "source": 0 }
  ],
  "samplers": [
    { "magFilter": 9729, "minFilter": 9729, "wrapS": 10497, "wrapT": 10497 }
  ],
  "images": [
    { "name": "S6EastPixels", "bufferView": 4, "mimeType": "image/png" }
  ],
  "buffers": [
    {
      "byteLength": 179,
      "uri": "data:application/octet-stream;base64,"
    }
  ],
  "bufferViews": [
    { "buffer": 0, "byteOffset": 0, "byteLength": 36 },
    { "buffer": 0, "byteOffset": 36, "byteLength": 36 },
    { "buffer": 0, "byteOffset": 72, "byteLength": 24 },
    { "buffer": 0, "byteOffset": 96, "byteLength": 6 },
    { "buffer": 0, "byteOffset": 104, "byteLength": 75 }
  ],
  "accessors": [
    { "bufferView": 0, "componentType": 5126, "count": 3, "type": "VEC3", "min": [-1.0, 0.0, 0.0], "max": [1.0, 1.0, 0.0] },
    { "bufferView": 1, "componentType": 5126, "count": 3, "type": "VEC3" },
    { "bufferView": 2, "componentType": 5126, "count": 3, "type": "VEC2" },
    { "bufferView": 3, "componentType": 5123, "count": 3, "type": "SCALAR" }
  ]
}
